<svg width="40" height="40" viewBox="0 0 40 40" fill="none" xmlns="http://www.w3.org/2000/svg">
<g clip-path="url(#clip0_66_286)">
<path fill-rule="evenodd" clip-rule="evenodd" d="M35.5734 21.2117L20.098 14.3123C20.0415 14.2865 19.9766 14.2865 19.9202 14.3123L4.44678 21.2125C4.36139 21.2558 4.30762 21.3434 4.30762 21.4392C4.30762 21.535 4.36139 21.6227 4.44678 21.666L10.7292 24.4675V23.5817C10.7292 21.7174 16.5441 21.4388 20.0101 21.4388C23.4762 21.4388 29.2911 21.7174 29.2911 23.5817V24.4675L35.5735 21.6653C35.6589 21.622 35.7127 21.5343 35.7127 21.4385C35.7127 21.3427 35.6588 21.255 35.5734 21.2117Z" fill="white"/>
<path fill-rule="evenodd" clip-rule="evenodd" d="M12.1572 23.787V30.8263C14.7275 30.2089 17.3681 29.9346 20.0103 30.0106C22.6458 29.9349 25.2797 30.2071 27.8441 30.8199L27.8634 23.7862C27.2473 23.4333 24.5794 22.8677 20.0103 22.8677C15.4412 22.8677 12.7712 23.4333 12.1572 23.787Z" fill="white"/>
<path d="M6.44536 30.724C6.83964 30.724 7.15927 30.4043 7.15927 30.0101C7.15927 29.6158 6.83964 29.2961 6.44536 29.2961C6.05107 29.2961 5.73145 29.6158 5.73145 30.0101C5.73145 30.4043 6.05107 30.724 6.44536 30.724Z" fill="white"/>
<path fill-rule="evenodd" clip-rule="evenodd" d="M11.4436 1.50049C11.4436 1.22435 11.2197 1.00049 10.9436 1.00049H8.37402C8.09788 1.00049 7.87402 1.22435 7.87402 1.50049V4.93135C7.87402 5.32486 8.30756 5.56415 8.64052 5.35441L11.2101 3.73575C11.3554 3.6442 11.4436 3.48446 11.4436 3.3127V1.50049Z" fill="white"/>
<path d="M20.0101 3.25659L1.87662 14.6811C1.74172 14.7641 1.59809 14.8319 1.44824 14.8832V38.5821C1.44824 39.3711 2.08752 40.0107 2.87607 40.0107H37.144C37.9325 40.0107 38.5718 39.3711 38.5718 38.5821V14.8824C38.4221 14.8312 38.2784 14.7637 38.1434 14.681L20.0101 3.25659ZM36.1581 22.9712L29.2909 26.0312V30.8263C29.2936 31.2803 29.0769 31.7076 28.7091 31.9734C28.3326 32.2463 27.8486 32.323 27.4062 32.1799C24.9826 31.618 22.497 31.3691 20.0101 31.4391C17.5235 31.369 15.038 31.6179 12.6146 32.1799C12.1719 32.3218 11.6882 32.2452 11.311 31.9734C10.9432 31.7076 10.7265 31.2803 10.7292 30.8263V26.0312L7.15961 24.439V27.9984C8.01498 28.2965 8.58809 29.1035 8.58809 30.0098C8.58809 30.9161 8.01498 31.7231 7.15961 32.0213V33.582C7.15961 33.9765 6.83996 34.2963 6.44569 34.2963C6.05142 34.2963 5.73178 33.9765 5.73178 33.582V32.022C4.87641 31.7238 4.3033 30.9168 4.3033 30.0105C4.3033 29.1043 4.87641 28.2973 5.73178 27.9991V23.8033L3.86345 22.9704C3.26358 22.6973 2.87856 22.0987 2.87856 21.4394C2.87856 20.78 3.26358 20.1814 3.86345 19.9083L19.3404 13.0103C19.7663 12.8224 20.2516 12.8224 20.6776 13.0103L36.1567 19.9104C36.7565 20.1835 37.1416 20.7821 37.1416 21.4415C37.1416 22.1008 36.7565 22.6994 36.1567 22.9725L36.1581 22.9712Z" fill="white"/>
<path fill-rule="evenodd" clip-rule="evenodd" d="M39.6666 12.2632L20.3909 0.120189C20.1587 -0.0257402 19.8635 -0.0257402 19.6313 0.120189L0.355557 12.2632C0.129696 12.3943 -0.00651475 12.6383 0.00024007 12.8994C0.00699489 13.1606 0.155732 13.3972 0.388019 13.5165C0.620306 13.6358 0.899156 13.6186 1.11511 13.4717L19.6298 1.80802C19.8624 1.66144 20.1583 1.66144 20.3909 1.80802L38.9063 13.4717C39.2411 13.673 39.675 13.5744 39.8901 13.2482C40.1001 12.9145 40.0001 12.4735 39.6666 12.2632Z" fill="white"/>
</g>
<defs>
<clipPath id="clip0_66_286">
<rect width="40" height="40" fill="white"/>
</clipPath>
</defs>
</svg>
