<svg width="40" height="40" viewBox="0 0 40 40" fill="none" xmlns="http://www.w3.org/2000/svg">
<g clip-path="url(#clip0_66_263)">
<path d="M7.64477 5.77237C8.04993 4.12163 8.99845 2.65497 10.3379 1.60807C11.6774 0.561173 13.33 -0.00517362 15.0303 3.56169e-05C16.7305 0.00524486 18.3797 0.581707 19.7127 1.63679C21.0457 2.69188 21.9852 4.16432 22.3803 5.81752C22.4483 5.87724 22.5029 5.95059 22.5407 6.03282C22.5785 6.11505 22.5986 6.2043 22.5996 6.29479V8.73271C22.5996 8.90376 22.5316 9.0678 22.4106 9.18876C22.2897 9.30971 22.1256 9.37766 21.9544 9.37766H20.7093C20.2148 9.37766 19.7405 9.18128 19.3909 8.83173C19.0412 8.48218 18.8448 8.00809 18.8448 7.51375C18.8448 7.0194 19.0412 6.54531 19.3909 6.19576C19.7405 5.84621 20.2148 5.64983 20.7093 5.64983H20.9996C20.5905 4.38769 19.793 3.28702 18.7209 2.505C17.6488 1.72298 16.3569 1.2996 15.0298 1.29531C13.7026 1.29102 12.408 1.70604 11.3309 2.48111C10.2537 3.25618 9.44909 4.35166 9.03187 5.61114H9.26413C9.73547 5.63899 10.1784 5.84579 10.5022 6.18926C10.8261 6.53273 11.0065 6.98691 11.0065 7.45892C11.0065 7.93094 10.8261 8.38512 10.5022 8.72859C10.1784 9.07206 9.73547 9.27886 9.26413 9.30671H8.05122C7.88011 9.30671 7.71601 9.23876 7.59502 9.11781C7.47403 8.99686 7.40606 8.83281 7.40606 8.66176V6.25609C7.40856 6.16301 7.4312 6.07159 7.4724 5.98809C7.51361 5.90459 7.57241 5.831 7.64477 5.77237Z" fill="white"/>
<path d="M4.82565 18.2264C5.39322 16.9345 6.32403 15.8353 7.5049 15.0624C8.68577 14.2895 10.0658 13.8763 11.4773 13.8729H12.0515C12.2226 13.8729 12.3867 13.9409 12.5077 14.0618C12.6286 14.1828 12.6966 14.3468 12.6966 14.5179C12.6966 15.1311 12.9403 15.7192 13.3741 16.1528C13.8078 16.5864 14.3961 16.83 15.0095 16.83C15.6229 16.83 16.2112 16.5864 16.645 16.1528C17.0787 15.7192 17.3224 15.1311 17.3224 14.5179C17.3224 14.3468 17.3904 14.1828 17.5114 14.0618C17.6324 13.9409 17.7965 13.8729 17.9676 13.8729H18.5418C19.9477 13.8825 21.3208 14.2987 22.4954 15.0712C23.67 15.8437 24.5958 16.9395 25.1611 18.2264H4.82565Z" fill="white"/>
<path d="M0.645161 40H39.3548C39.5259 40 39.69 39.932 39.811 39.8111C39.932 39.6901 40 39.5261 40 39.355C40 39.184 39.932 39.0199 39.811 38.899C39.69 38.778 39.5259 38.7101 39.3548 38.7101H0.645161C0.474056 38.7101 0.309956 38.778 0.188965 38.899C0.0679741 39.0199 0 39.184 0 39.355C0 39.5261 0.0679741 39.6901 0.188965 39.8111C0.309956 39.932 0.474056 40 0.645161 40Z" fill="white"/>
<path d="M33.7099 34.1503V36.2335C33.7099 36.4045 33.7779 36.5686 33.8989 36.6895C34.0199 36.8105 34.184 36.8784 34.3551 36.8784C34.5262 36.8784 34.6903 36.8105 34.8113 36.6895C34.9323 36.5686 35.0003 36.4045 35.0003 36.2335V34.1503C35.7718 34.2999 36.4673 34.7131 36.9675 35.3191C37.4677 35.9251 37.7416 36.6861 37.7422 37.4718V37.7427C37.7422 37.9137 37.6742 38.0778 37.5532 38.1987C37.4322 38.3197 37.2681 38.3876 37.097 38.3876H31.6132C31.442 38.3876 31.2779 38.3197 31.157 38.1987C31.036 38.0778 30.968 37.9137 30.968 37.7427V37.4718C30.9686 36.6861 31.2424 35.9251 31.7427 35.3191C32.2429 34.7131 32.9384 34.2999 33.7099 34.1503Z" fill="white"/>
<path d="M16.0389 28.4683L16.2131 29.4873L15.3034 29.0358C15.2109 28.9872 15.108 28.9618 15.0034 28.9618C14.8989 28.9618 14.796 28.9872 14.7034 29.0358L13.7938 29.5131L13.9679 28.4941C13.9849 28.3914 13.9767 28.2861 13.9441 28.1873C13.9115 28.0885 13.8555 27.999 13.7809 27.9265L13.0454 27.2042L14.0647 27.0558C14.1681 27.0403 14.2661 26.9999 14.3504 26.9381C14.4347 26.8763 14.5027 26.795 14.5486 26.7011L15.0002 25.7788L15.4841 26.6753C15.53 26.7692 15.598 26.8505 15.6822 26.9123C15.7665 26.9741 15.8646 27.0145 15.9679 27.03L16.9873 27.1784L16.2518 27.9007C16.1725 27.9706 16.1116 28.059 16.0745 28.1579C16.0374 28.2569 16.0252 28.3635 16.0389 28.4683Z" fill="white"/>
<path d="M0.432129 21.3802C0.422567 21.0951 0.470795 20.811 0.573906 20.545C0.677017 20.279 0.832882 20.0366 1.03213 19.8323C1.22697 19.6282 1.46125 19.4658 1.72076 19.355C1.98026 19.2441 2.2596 19.1871 2.54181 19.1874H27.4644C27.7466 19.1871 28.0259 19.2441 28.2854 19.355C28.5449 19.4658 28.7792 19.6282 28.9741 19.8323C29.1785 20.0446 29.3368 20.2968 29.4389 20.5732C29.5411 20.8496 29.5849 21.1441 29.5676 21.4383L27.845 35.1886V36.6075C27.8317 37.0787 27.6359 37.5262 27.2989 37.8559C26.9619 38.1856 26.5101 38.3716 26.0386 38.3747H3.99342C3.52194 38.3716 3.0701 38.1856 2.73312 37.8559C2.39614 37.5262 2.20033 37.0787 2.18697 36.6075V35.1886L0.46439 21.4383C0.46439 21.4383 0.432129 21.3996 0.432129 21.3802ZM18.9612 26.5398C18.9238 26.4252 18.855 26.3234 18.7626 26.2458C18.6702 26.1683 18.558 26.1182 18.4386 26.1013L16.4644 25.811L15.5805 24.0181C15.527 23.9107 15.4446 23.8205 15.3426 23.7574C15.2406 23.6942 15.1231 23.6608 15.0031 23.6608C14.8831 23.6608 14.7656 23.6942 14.6636 23.7574C14.5616 23.8205 14.4792 23.9107 14.4257 24.0181L13.5483 25.811L11.5741 26.1013C11.4546 26.1186 11.3424 26.1691 11.2502 26.247C11.158 26.3249 11.0895 26.4272 11.0525 26.5421C11.0156 26.657 11.0116 26.7799 11.0411 26.897C11.0705 27.014 11.1323 27.1204 11.2192 27.2041L12.6386 28.5843L12.3031 30.5579C12.2834 30.6762 12.2972 30.7977 12.3427 30.9086C12.3883 31.0196 12.464 31.1156 12.5611 31.186C12.6583 31.2563 12.7732 31.2982 12.8929 31.3069C13.0125 31.3155 13.1323 31.2907 13.2386 31.2351L14.9999 30.3257L16.7741 31.2351C16.8804 31.2907 17.0001 31.3155 17.1198 31.3069C17.2394 31.2982 17.3543 31.2563 17.4515 31.186C17.5487 31.1156 17.6243 31.0196 17.6699 30.9086C17.7155 30.7977 17.7292 30.6762 17.7096 30.5579L17.3741 28.5843L18.7999 27.1912C18.8863 27.1067 18.9473 26.9997 18.9758 26.8822C19.0043 26.7648 18.9992 26.6417 18.9612 26.5269V26.5398ZM3.47729 36.6075C3.48225 36.7416 3.53861 36.8686 3.6347 36.9623C3.73079 37.0559 3.85923 37.109 3.99342 37.1106H26.0063C26.1405 37.109 26.269 37.0559 26.365 36.9623C26.4611 36.8686 26.5175 36.7416 26.5225 36.6075V35.8465H3.45794L3.47729 36.6075Z" fill="white"/>
<path d="M11.7483 7.47507C11.7486 6.93777 11.5755 6.41469 11.2547 5.9836C10.9339 5.5525 10.4825 5.23641 9.96762 5.0823C10.4368 4.14315 11.1593 3.35383 12.0535 2.80345C12.9476 2.25307 13.9779 1.96355 15.028 1.96757C16.0781 1.9716 17.1062 2.26901 17.9961 2.82623C18.886 3.38344 19.6024 4.17828 20.0644 5.12099C19.5311 5.26982 19.062 5.59078 18.7301 6.03388C18.3983 6.47699 18.2223 7.01736 18.2297 7.57083C18.2371 8.12431 18.4273 8.65981 18.7708 9.09394C19.1143 9.52806 19.5918 9.83644 20.1289 9.97104C19.6816 10.9709 18.9523 11.8187 18.0303 12.4105C17.1083 13.0022 16.0337 13.3123 14.9381 13.3027C13.8424 13.2931 12.7734 12.9643 11.8619 12.3565C10.9504 11.7487 10.236 10.8883 9.80633 9.88074C10.3544 9.75827 10.8448 9.45374 11.1974 9.01684C11.5501 8.57994 11.7443 8.03646 11.7483 7.47507Z" fill="white"/>
</g>
<defs>
<clipPath id="clip0_66_263">
<rect width="40" height="40" fill="white" transform="matrix(-1 0 0 1 40 0)"/>
</clipPath>
</defs>
</svg>
